<svg width="22" height="22" viewBox="0 0 22 22" fill="none" xmlns="http://www.w3.org/2000/svg">
<mask id="path-1-inside-1_149_3971" fill="white">
<path fill-rule="evenodd" clip-rule="evenodd" d="M10.9128 0C9.88372 0 9.04948 0.834242 9.04948 1.86333C9.04948 1.9645 9.05754 2.06378 9.07306 2.16058C6.87064 2.91076 5.2864 4.99703 5.2864 7.45331C5.2864 7.86255 5.33038 8.26152 5.41386 8.64575C5.54569 9.25247 5.52508 9.89951 5.21465 10.4372L0.270933 19C-0.498867 20.3333 0.463382 22 2.00298 22H19.8181C21.3577 22 22.3199 20.3333 21.5501 19L16.5579 10.3532C16.2522 9.82375 16.2274 9.18753 16.351 8.58875C16.4266 8.22211 16.4664 7.84235 16.4664 7.45331C16.4664 5.02269 14.9151 2.95441 12.7486 2.18453C12.7667 2.08019 12.7761 1.97286 12.7761 1.86333C12.7761 0.834242 11.9419 0 10.9128 0Z"/>
</mask>
<path d="M9.07306 2.16058L9.71792 4.05376L11.3149 3.5098L11.0478 1.84399L9.07306 2.16058ZM5.41386 8.64575L7.36826 8.2211L7.36826 8.2211L5.41386 8.64575ZM5.21465 10.4372L6.9467 11.4372L5.21465 10.4372ZM0.270933 19L-1.46112 18H-1.46112L0.270933 19ZM21.5501 19L23.2822 18L21.5501 19ZM16.5579 10.3532L18.29 9.35324L18.29 9.35323L16.5579 10.3532ZM16.351 8.58875L18.3097 8.99289V8.99289L16.351 8.58875ZM12.7486 2.18453L10.7781 1.84215L10.4893 3.50422L12.0789 4.06908L12.7486 2.18453ZM11.0495 1.86333C11.0495 1.93881 10.9883 2 10.9128 2V-2C8.77915 -2 7.04948 -0.270328 7.04948 1.86333H11.0495ZM11.0478 1.84399C11.0491 1.8515 11.0495 1.85807 11.0495 1.86333H7.04948C7.04948 2.07092 7.06604 2.27607 7.09828 2.47716L11.0478 1.84399ZM8.4282 0.267388C5.44021 1.28516 3.2864 4.11511 3.2864 7.45331H7.2864C7.2864 5.87894 8.30106 4.53637 9.71792 4.05376L8.4282 0.267388ZM3.2864 7.45331C3.2864 8.00622 3.34586 8.54754 3.45946 9.0704L7.36826 8.2211C7.3149 7.9755 7.2864 7.71887 7.2864 7.45331H3.2864ZM3.45946 9.0704C3.49065 9.21395 3.49421 9.32096 3.48818 9.3878C3.48255 9.4502 3.47094 9.4574 3.48259 9.43721L6.9467 11.4372C7.59075 10.3217 7.563 9.11736 7.36826 8.2211L3.45946 9.0704ZM3.48259 9.43721L-1.46112 18L2.00298 20L6.9467 11.4372L3.48259 9.43721ZM-1.46112 18C-3.00072 20.6666 -1.07622 24 2.00298 24V20H2.00298L-1.46112 18ZM2.00298 24H19.8181V20H2.00298V24ZM19.8181 24C22.8972 24 24.8218 20.6666 23.2822 18L19.8181 20V20V24ZM23.2822 18L18.29 9.35324L14.8259 11.3532L19.8181 20L23.2822 18ZM18.29 9.35323C18.3015 9.37318 18.2901 9.36607 18.2842 9.30486C18.2779 9.23939 18.2805 9.1344 18.3097 8.99289L14.3923 8.18461C14.2095 9.07013 14.1917 10.2549 14.8259 11.3532L18.29 9.35323ZM18.3097 8.99289C18.4127 8.49406 18.4664 7.9789 18.4664 7.45331H14.4664C14.4664 7.7058 14.4406 7.95016 14.3923 8.18461L18.3097 8.99289ZM18.4664 7.45331C18.4664 4.14994 16.3572 1.34433 13.4182 0.29998L12.0789 4.06908C13.473 4.56448 14.4664 5.89545 14.4664 7.45331H18.4664ZM10.7761 1.86333C10.7761 1.8576 10.7767 1.85038 10.7781 1.84215L14.719 2.52691C14.7567 2.30999 14.7761 2.08812 14.7761 1.86333H10.7761ZM10.9128 2C10.8373 2 10.7761 1.93881 10.7761 1.86333H14.7761C14.7761 -0.270328 13.0465 -2 10.9128 -2V2Z" fill="#7E98DF" mask="url(#path-1-inside-1_149_3971)"/>
</svg>
