<svg width="27" height="12" viewBox="0 0 27 12" fill="none" xmlns="http://www.w3.org/2000/svg">
<path d="M2.48269 11.2383L6.35045 11.2383C7.41676 11.2383 8.28433 10.3707 8.28433 9.30444L8.28433 7.54638C8.28433 6.73855 8.94171 6.08141 9.74912 6.08129L17.3726 6.08454C18.1823 6.08454 18.8376 6.73976 18.8376 7.5496C18.8376 7.83278 18.8376 8.6459 18.8376 9.30765C18.8376 10.3693 19.695 11.2416 20.7725 11.2415L24.6332 11.2354C25.6995 11.2354 26.567 10.3679 26.567 9.30437C26.5705 8.51203 26.5716 8.25644 26.5731 7.90117C26.5731 4.05586 23.4448 0.927484 19.5996 0.927484L7.52252 0.924326C3.66816 0.924297 0.548837 4.04332 0.548865 7.89798L0.548837 9.30447C0.548836 10.3708 1.41635 11.2383 2.48269 11.2383ZM25.2778 9.30158C25.2778 9.657 24.9887 9.94616 24.6322 9.94622L20.7715 9.9523C20.4152 9.9523 20.1269 9.66399 20.1269 9.30768L20.1269 8.66304L25.2806 8.66304L25.2778 9.30158ZM7.52231 2.21359L19.5995 2.21678C22.5745 2.21678 24.992 4.47075 25.2594 7.37377L20.1207 7.37377C20.0305 5.93332 18.8361 4.79525 17.3728 4.79525L9.74967 4.79206C9.7496 4.79206 9.74948 4.79206 9.74942 4.79206C8.28764 4.79203 7.09153 5.92822 7.00129 7.37053H1.86247C2.12708 4.47482 4.5268 2.21359 7.52231 2.21359ZM1.83804 9.3045V8.65982L6.99506 8.65985L6.99509 9.30444C6.99506 9.65989 6.70594 9.94908 6.35045 9.94908H2.48269C2.1272 9.94908 1.83801 9.65989 1.83804 9.3045Z" fill="white"/>
</svg>
