<svg width="22" height="23" viewBox="0 0 22 23" fill="none" xmlns="http://www.w3.org/2000/svg">
<mask id="path-1-inside-1_149_4684" fill="white">
<path fill-rule="evenodd" clip-rule="evenodd" d="M10.9127 0.556152C9.88357 0.556152 9.04932 1.39039 9.04932 2.41948C9.04932 2.52061 9.05738 2.61986 9.07289 2.71662C6.87056 3.46686 5.28641 5.55307 5.28641 8.00929C5.28641 8.41858 5.33039 8.8176 5.4139 9.20188C5.54575 9.80862 5.52516 10.4557 5.2147 10.9934L0.270933 19.5563C-0.498867 20.8896 0.463381 22.5563 2.00298 22.5563H19.818C21.3576 22.5563 22.3199 20.8896 21.5501 19.5563L16.5579 10.9095C16.2521 10.38 16.2274 9.7437 16.351 9.1449C16.4266 8.7782 16.4664 8.39839 16.4664 8.00929C16.4664 5.57863 14.915 3.51031 12.7484 2.74047C12.7665 2.63619 12.776 2.52894 12.776 2.41948C12.776 1.39039 11.9417 0.556152 10.9127 0.556152Z"/>
</mask>
<path d="M9.07289 2.71662L9.71781 4.60978L11.3146 4.06582L11.0477 2.40015L9.07289 2.71662ZM5.4139 9.20188L3.45951 9.62658L5.4139 9.20188ZM5.2147 10.9934L3.48265 9.99341H3.48265L5.2147 10.9934ZM0.270933 19.5563L2.00298 20.5563H2.00298L0.270933 19.5563ZM21.5501 19.5563L19.818 20.5563H19.818L21.5501 19.5563ZM16.5579 10.9095L18.2899 9.90946L18.2899 9.90946L16.5579 10.9095ZM16.351 9.1449L14.3922 8.74069L14.3922 8.7407L16.351 9.1449ZM12.7484 2.74047L10.7779 2.39833L10.4894 4.06026L12.0788 4.62503L12.7484 2.74047ZM11.0493 2.41948C11.0493 2.49496 10.9881 2.55615 10.9127 2.55615V-1.44385C8.779 -1.44385 7.04932 0.285824 7.04932 2.41948H11.0493ZM11.0477 2.40015C11.0489 2.40765 11.0493 2.41422 11.0493 2.41948H7.04932C7.04932 2.627 7.06587 2.83207 7.09808 3.03308L11.0477 2.40015ZM8.42797 0.823451C5.4401 1.84129 3.28641 4.67118 3.28641 8.00929H7.28641C7.28641 6.43496 8.30101 5.09242 9.71781 4.60978L8.42797 0.823451ZM3.28641 8.00929C3.28641 8.56227 3.34588 9.10366 3.45951 9.62658L7.36829 8.77717C7.31491 8.53155 7.28641 8.27489 7.28641 8.00929H3.28641ZM3.45951 9.62658C3.49071 9.77014 3.49426 9.87716 3.48824 9.944C3.48261 10.0064 3.471 10.0136 3.48265 9.99341L6.94675 11.9934C7.59084 10.8778 7.56306 9.67347 7.36829 8.77717L3.45951 9.62658ZM3.48265 9.99341L-1.46112 18.5563L2.00298 20.5563L6.94676 11.9934L3.48265 9.99341ZM-1.46112 18.5563C-3.00072 21.2229 -1.07622 24.5563 2.00298 24.5563V20.5563H2.00298L-1.46112 18.5563ZM2.00298 24.5563H19.818V20.5563H2.00298V24.5563ZM19.818 24.5563C22.8972 24.5563 24.8217 21.2229 23.2821 18.5563L19.818 20.5563V20.5563V24.5563ZM23.2821 18.5563L18.2899 9.90946L14.8258 11.9095L19.818 20.5563L23.2821 18.5563ZM18.2899 9.90946C18.3014 9.9294 18.2901 9.9223 18.2842 9.86108C18.2779 9.7956 18.2805 9.69061 18.3097 9.54909L14.3922 8.7407C14.2095 9.62625 14.1916 10.811 14.8258 11.9095L18.2899 9.90946ZM18.3097 9.5491C18.4126 9.05019 18.4664 8.53496 18.4664 8.00929H14.4664C14.4664 8.26182 14.4406 8.50622 14.3922 8.74069L18.3097 9.5491ZM18.4664 8.00929C18.4664 4.70585 16.3571 1.90021 13.4181 0.8559L12.0788 4.62503C13.473 5.12041 14.4664 6.4514 14.4664 8.00929H18.4664ZM10.776 2.41948C10.776 2.41376 10.7765 2.40655 10.7779 2.39833L14.719 3.0826C14.7566 2.86582 14.776 2.64411 14.776 2.41948H10.776ZM10.9127 2.55615C10.8372 2.55615 10.776 2.49496 10.776 2.41948H14.776C14.776 0.285824 13.0463 -1.44385 10.9127 -1.44385V2.55615Z" fill="white" mask="url(#path-1-inside-1_149_4684)"/>
</svg>
