<svg width="22" height="22" viewBox="0 0 22 22" fill="none" xmlns="http://www.w3.org/2000/svg">
<rect x="1" y="1" width="20" height="20" rx="2" stroke="white" stroke-width="2"/>
<path d="M8.96843 12.4268L2.85567 19.0952C2.63309 19.338 2.78297 19.7307 3.11073 19.7635L8.10539 20.263H12.737L18.8449 19.7077C19.0031 19.6933 19.1379 19.5866 19.1881 19.4359L20.2428 16.2719C20.2564 16.2312 20.2633 16.1884 20.2633 16.1454V12.1051L20.734 6.97043C20.7689 6.58905 20.2996 6.38131 20.0408 6.66363L12.4529 14.9413C12.2944 15.1143 12.0217 15.1143 11.8632 14.9413L9.55815 12.4268C9.39961 12.2538 9.12696 12.2538 8.96843 12.4268Z" fill="white" stroke="white" stroke-width="2"/>
</svg>
