<svg width="24" height="23" viewBox="0 0 24 23" fill="none" xmlns="http://www.w3.org/2000/svg">
<path d="M11.9908 0C5.7635 0 0.720703 5.04 0.720703 11.25C0.720703 17.46 5.7635 22.5 11.9908 22.5C18.2295 22.5 23.2836 17.46 23.2836 11.25C23.2836 5.04 18.2295 0 11.9908 0ZM8.05363 6.75C8.98999 6.75 9.74584 7.50375 9.74584 8.4375C9.74584 9.37125 8.98999 10.125 8.05363 10.125C7.11727 10.125 6.36142 9.37125 6.36142 8.4375C6.36142 7.50375 7.11727 6.75 8.05363 6.75ZM12.0021 18C11.2945 18 10.616 17.8587 9.9857 17.599C7.42091 16.5422 9.22814 13.5 12.0021 13.5C14.7761 13.5 16.5833 16.5422 14.0186 17.599C13.3883 17.8587 12.7097 18 12.0021 18ZM15.9506 10.125C15.0143 10.125 14.2584 9.37125 14.2584 8.4375C14.2584 7.50375 15.0143 6.75 15.9506 6.75C16.887 6.75 17.6428 7.50375 17.6428 8.4375C17.6428 9.37125 16.887 10.125 15.9506 10.125Z" fill="#7E98DF"/>
</svg>
