<svg width="22" height="23" viewBox="0 0 22 23" fill="none" xmlns="http://www.w3.org/2000/svg">
<path fill-rule="evenodd" clip-rule="evenodd" d="M15.2124 6.19717C15.2124 8.45331 13.3834 10.2823 11.1273 10.2823C8.87114 10.2823 7.04218 8.45331 7.04218 6.19717C7.04218 3.94103 8.87114 2.11206 11.1273 2.11206C13.3834 2.11206 15.2124 3.94103 15.2124 6.19717ZM13.7797 11.6753C15.8115 10.6897 17.2124 8.60703 17.2124 6.19717C17.2124 2.83646 14.488 0.112061 11.1273 0.112061C7.76657 0.112061 5.04218 2.83646 5.04218 6.19717C5.04218 8.60703 6.44303 10.6897 8.47485 11.6753C4.44512 12.6963 1.32117 15.9898 0.546751 20.1121C0.425005 20.7601 0.361328 21.4287 0.361328 22.1121H2.36133H19.8932H21.8932C21.8932 21.4287 21.8296 20.7601 21.7078 20.1121C20.9334 15.9898 17.8095 12.6963 13.7797 11.6753ZM2.59051 20.1121C3.49541 16.2345 6.97404 13.3461 11.1273 13.3461C15.2805 13.3461 18.7592 16.2345 19.6641 20.1121H2.59051Z" fill="white"/>
</svg>
