<svg width="22" height="22" viewBox="0 0 22 22" fill="none" xmlns="http://www.w3.org/2000/svg">
<path fill-rule="evenodd" clip-rule="evenodd" d="M14.8511 6.08511C14.8511 8.34125 13.0221 10.1702 10.766 10.1702C8.50982 10.1702 6.68085 8.34125 6.68085 6.08511C6.68085 3.82896 8.50982 2 10.766 2C13.0221 2 14.8511 3.82896 14.8511 6.08511ZM13.4184 11.5632C15.4502 10.5776 16.8511 8.49497 16.8511 6.08511C16.8511 2.7244 14.1267 0 10.766 0C7.40525 0 4.68085 2.7244 4.68085 6.08511C4.68085 8.49497 6.08171 10.5776 8.11352 11.5632C4.08379 12.5842 0.95984 15.8777 0.185422 20C0.0636773 20.6481 0 21.3166 0 22H2H19.5319H21.5319C21.5319 21.3166 21.4682 20.6481 21.3465 20C20.5721 15.8777 17.4481 12.5842 13.4184 11.5632ZM2.22919 20C3.13408 16.1224 6.61271 13.234 10.766 13.234C14.9192 13.234 18.3978 16.1224 19.3027 20H2.22919Z" fill="white"/>
</svg>
