<svg width="11" height="19" viewBox="0 0 11 19" fill="none" xmlns="http://www.w3.org/2000/svg">
<path fill-rule="evenodd" clip-rule="evenodd" d="M7.79289 9.3271L1.77075 3.30496C1.75774 3.29283 1.7449 3.28044 1.73223 3.26777L1.02513 2.56066C0.43934 1.97487 0.43934 1.02513 1.02513 0.43934C1.61091 -0.146447 2.56066 -0.146447 3.14645 0.43934L3.47421 0.767105L3.47487 0.766442L10.2678 7.55933C11.2441 8.53564 11.2441 10.1186 10.2678 11.0949L3.85354 17.5091L3.47487 17.8878L3.14643 18.2162C2.56064 18.802 1.6109 18.802 1.02511 18.2162C0.439322 17.6304 0.439322 16.6807 1.02511 16.0949L1.35355 15.7664L1.73222 15.3878C1.73365 15.3863 1.7351 15.3849 1.73654 15.3835L7.79289 9.3271Z" fill="#7E98DF"/>
</svg>
